<svg width="18" height="24" viewBox="0 0 18 24" fill="none" xmlns="http://www.w3.org/2000/svg">
<path fill-rule="evenodd" clip-rule="evenodd" d="M9 0C5.629 2.866 3.516 3 0 3V14.535C0 19.138 3.203 20.339 9 24C14.797 20.339 18 19.138 18 14.535V3C14.484 3 12.371 2.866 9 0ZM9 1.292C11.942 3.602 14.12 3.947 17 3.993V14.535C17 18.426 14.362 19.478 9 22.819C3.625 19.469 1 18.405 1 14.535V3.993C3.88 3.947 6.058 3.602 9 1.292ZM14 9.031L8.008 15.654L4.336 11.723L5.037 11.04L8.045 14.224L13.272 8.346L14 9.031Z" fill="#0C806B"/>
</svg>
